<?xml version="1.0" encoding="UTF-8"?>
<svg version="1.1" xmlns="http://www.w3.org/2000/svg" width="144" height="144">
<path d="M0 0 C2.8060903 0.00849595 5.61012507 -0.0203621 8.41601562 -0.05200195 C28.30458566 -0.12913997 52.92541886 1.80520902 68.24853516 15.95336914 C71.74873347 20.73744207 71.16910951 25.93069285 70.88476562 31.63354492 C70.87767578 32.79563477 70.87058594 33.95772461 70.86328125 35.1550293 C70.70853924 41.41308396 70.47806694 44.73180165 66.07226562 49.44604492 C63.77539062 51.28198242 63.77539062 51.28198242 61.32226562 52.82104492 C60.52304688 53.3444043 59.72382813 53.86776367 58.90039062 54.40698242 C52.81506331 56.64275185 45.33019454 53.91647636 39.18945312 52.41479492 C38.37155304 52.21881714 37.55365295 52.02283936 36.71096802 51.82092285 C34.12206761 51.20003422 31.53459679 50.57343771 28.94726562 49.94604492 C26.35261254 49.31944995 23.75766614 48.69413546 21.16213989 48.07116699 C19.5543901 47.68502924 17.94715983 47.29671963 16.34054565 46.90588379 C15.6060318 46.72900024 14.87151794 46.5521167 14.11474609 46.36987305 C13.47713348 46.21522583 12.83952087 46.06057861 12.18258667 45.90124512 C9.49772392 45.3221152 6.78150737 44.89758521 4.07226562 44.44604492 C4.07226562 50.05604492 4.07226562 55.66604492 4.07226562 61.44604492 C5.61011719 61.80956055 7.14796875 62.17307617 8.73242188 62.54760742 C10.86663442 63.05500808 13.00074097 63.56285465 15.13476562 64.07104492 C16.81372925 64.46948608 16.81372925 64.46948608 18.52661133 64.87597656 C24.2543464 66.2468507 29.9606914 67.66479783 35.64257812 69.21557617 C36.6724585 69.4951416 37.70233887 69.77470703 38.76342773 70.06274414 C40.72286156 70.59950097 42.67957818 71.14630385 44.63305664 71.7043457 C50.29543191 73.25109596 54.62975717 74.1541598 60.11914062 71.43041992 C63.73182081 68.81205539 65.91214532 66.95762388 67.07226562 62.44604492 C68.06226563 62.44604492 69.05226562 62.44604492 70.07226562 62.44604492 C70.21819352 66.15396037 70.30654457 69.86113218 70.38476562 73.57104492 C70.44760742 75.14112305 70.44760742 75.14112305 70.51171875 76.74291992 C70.64987205 85.47420821 70.64987205 85.47420821 67.79492188 89.00854492 C63.47886782 92.87255888 63.47886782 92.87255888 61.19726562 94.32104492 C60.58109375 94.7309668 59.96492188 95.14088867 59.33007812 95.56323242 C52.77266139 98.12720506 45.79585525 95.57164656 39.32617188 93.82104492 C38.31505844 93.55469238 37.30394501 93.28833984 36.26219177 93.01391602 C33.05085596 92.16600005 29.84283873 91.30621358 26.63476562 90.44604492 C24.45072951 89.86713208 22.26648669 89.28899847 20.08203125 88.71166992 C14.74300686 87.29880728 9.40692562 85.87529413 4.07226562 84.44604492 C4.07226562 91.04604492 4.07226562 97.64604492 4.07226562 104.44604492 C0.2597194 104.47287285 -3.55264049 104.4927997 -7.36523438 104.50854492 C-8.45384766 104.51692383 -9.54246094 104.52530273 -10.6640625 104.53393555 C-11.69853516 104.5371582 -12.73300781 104.54038086 -13.79882812 104.54370117 C-14.75716553 104.54893799 -15.71550293 104.5541748 -16.70288086 104.55957031 C-18.92773438 104.44604492 -18.92773438 104.44604492 -19.92773438 103.44604492 C-21.6572352 103.05472542 -23.39823585 102.71397059 -25.14257812 102.39526367 C-26.22216797 102.19094727 -27.30175781 101.98663086 -28.4140625 101.77612305 C-30.67876213 101.35445571 -32.94436875 100.93762502 -35.2109375 100.52612305 C-43.8770922 98.87274563 -52.88773369 97.07894745 -59.49023438 90.82104492 C-60.13089844 90.2306543 -60.7715625 89.64026367 -61.43164062 89.03198242 C-64.15098285 86.14933766 -64.04655795 84.07193468 -64.02539062 80.21948242 C-64.02216797 79.18823242 -64.01894531 78.15698242 -64.015625 77.09448242 C-64.00724609 76.01424805 -63.99886719 74.93401367 -63.99023438 73.82104492 C-63.98572266 72.73307617 -63.98121094 71.64510742 -63.9765625 70.52416992 C-63.96475214 67.83140703 -63.94828216 65.13875304 -63.92773438 62.44604492 C-63.26773438 62.44604492 -62.60773437 62.44604492 -61.92773438 62.44604492 C-61.39148437 63.33291992 -60.85523438 64.21979492 -60.30273438 65.13354492 C-54.49338707 74.00373113 -42.72725508 76.37586588 -32.92773438 78.44604492 C-26.63293314 79.49216123 -20.28922703 80.00431134 -13.92773438 80.44604492 C-12.74195801 80.53063965 -12.74195801 80.53063965 -11.53222656 80.61694336 C-6.99830003 80.9336997 -2.46668859 81.19619423 2.07226562 81.44604492 C2.07226562 75.50604492 2.07226562 69.56604492 2.07226562 63.44604492 C-0.15523437 63.50791992 -2.38273437 63.56979492 -4.67773438 63.63354492 C-22.63065864 63.78020685 -45.48239817 61.09189736 -59.92773438 49.44604492 C-65.20273136 43.82792365 -64.55890904 38.81443227 -64.49023438 31.44604492 C-64.51408203 30.27041992 -64.53792969 29.09479492 -64.5625 27.88354492 C-64.54784876 19.28814983 -64.54784876 19.28814983 -61.60351562 15.28979492 C-60.72050781 14.68135742 -59.8375 14.07291992 -58.92773438 13.44604492 C-58.363125 12.98198242 -57.79851563 12.51791992 -57.21679688 12.03979492 C-40.64414902 1.14697473 -19.22605039 -0.08826929 0 0 Z " fill="#D43D44" transform="translate(68.927734375,19.553955078125)"/>
</svg>
