<svg width="42" height="42" viewBox="0 0 42 42" fill="none" xmlns="http://www.w3.org/2000/svg">
<g clip-path="url(#clip0_429_1027)">
<mask id="mask0_429_1027" style="mask-type:luminance" maskUnits="userSpaceOnUse" x="0" y="5" width="42" height="31">
<path d="M0.840088 20.4213C0.840088 28.6414 9.86693 35.3052 21.0017 35.3052C32.1364 35.3052 41.1633 28.6414 41.1633 20.4213C41.1633 12.2013 32.1364 5.53737 21.0017 5.53737C9.86693 5.53737 0.840088 12.2013 0.840088 20.4213Z" fill="white"/>
</mask>
<g mask="url(#mask0_429_1027)">
<path d="M0.840088 20.4213C0.840088 28.6414 9.86693 35.3052 21.0017 35.3052C32.1364 35.3052 41.1633 28.6414 41.1633 20.4213C41.1633 12.2013 32.1364 5.53737 21.0017 5.53737C9.86693 5.53737 0.840088 12.2013 0.840088 20.4213Z" fill="url(#paint0_radial_429_1027)"/>
</g>
<mask id="mask1_429_1027" style="mask-type:luminance" maskUnits="userSpaceOnUse" x="0" y="3" width="43" height="34">
<path d="M0 3.84254H42.0033V37H0V3.84254Z" fill="white"/>
</mask>
<g mask="url(#mask1_429_1027)">
<path d="M21.0017 34.1997C31.7015 34.1997 40.3757 28.0307 40.3757 20.4208C40.3757 12.8111 31.7015 6.64198 21.0017 6.64198C10.3019 6.64198 1.62769 12.8111 1.62769 20.4208C1.62769 28.0307 10.3019 34.1997 21.0017 34.1997Z" fill="#777BB3"/>
</g>
<mask id="mask2_429_1027" style="mask-type:luminance" maskUnits="userSpaceOnUse" x="0" y="3" width="43" height="34">
<path d="M0 3.84254H42.0033V37H0V3.84254Z" fill="white"/>
</mask>
<g mask="url(#mask2_429_1027)">
<path d="M11.794 22.1296C12.6738 22.1296 13.3306 21.9019 13.7462 21.4531C14.1573 21.0088 14.4413 20.2391 14.5901 19.1655C14.7289 18.162 14.676 17.4613 14.433 17.0831C14.1846 16.6969 13.6474 16.501 12.8365 16.501H11.4305L10.6511 22.1296H11.794ZM7.19527 29.063C7.13 29.063 7.06802 29.0221 7.02653 28.9512C6.98496 28.8805 6.96812 28.7874 6.98059 28.6974L9.04633 13.7816C9.06631 13.6374 9.15637 13.5332 9.26109 13.5332H13.7133C15.1125 13.5332 16.154 14.0664 16.8086 15.1181C17.4668 16.1754 17.67 17.6532 17.4127 19.5106C17.3079 20.2673 17.1278 20.97 16.8773 21.5992C16.6265 22.2291 16.2951 22.8119 15.8921 23.3318C15.4096 23.9654 14.8636 24.4249 14.2706 24.6953C13.687 24.9621 12.9375 25.0974 12.0429 25.0974H10.2401L9.72531 28.8145C9.70533 28.9588 9.61535 29.063 9.51063 29.063H7.19527Z" fill="white"/>
<path d="M11.6109 16.8082H12.8366C13.8153 16.8082 14.1552 17.1095 14.2707 17.2891C14.4624 17.5874 14.4986 18.2161 14.3754 19.1074C14.237 20.1052 13.9804 20.8126 13.6128 21.2099C13.2363 21.6166 12.6244 21.8227 11.794 21.8227H10.9165L11.6109 16.8082ZM13.7133 13.2263H9.26105C9.05161 13.2263 8.87157 13.4347 8.83161 13.7232L6.76586 28.639C6.74092 28.819 6.77461 29.0052 6.85767 29.1467C6.9408 29.2882 7.06462 29.3701 7.1953 29.3701H9.51059C9.72009 29.3701 9.90014 29.1618 9.9401 28.8733L10.4205 25.4045H12.043C12.9605 25.4045 13.7329 25.2641 14.3385 24.9873C14.9613 24.7033 15.5343 24.2218 16.0415 23.5562C16.461 23.0146 16.8065 22.4067 17.0683 21.7492C17.3301 21.0915 17.5183 20.358 17.6274 19.5692C17.8983 17.6142 17.6783 16.0486 16.9734 14.9163C16.2754 13.7949 15.1785 13.2263 13.7133 13.2263ZM10.3857 22.4367H11.794C12.7275 22.4367 13.4228 22.19 13.8797 21.6964C14.3366 21.2027 14.6448 20.3788 14.8049 19.2242C14.9581 18.1157 14.8883 17.3335 14.5955 16.8777C14.3024 16.422 13.7162 16.1941 12.8366 16.1941H11.2502L10.3857 22.4367ZM13.7133 13.8404C15.0527 13.8404 16.0298 14.3336 16.6439 15.3203C17.258 16.3069 17.4429 17.6841 17.1979 19.4522C17.0971 20.1805 16.9265 20.8464 16.6864 21.4497C16.4459 22.0534 16.132 22.6054 15.7441 23.1059C15.2817 23.7131 14.7681 24.1458 14.203 24.4035C13.6378 24.6619 12.918 24.7905 12.043 24.7905H10.0598L9.51059 28.7561H7.1953L9.26105 13.8404H13.7133Z" fill="black"/>
<path d="M22.7213 25.0977C22.6559 25.0977 22.594 25.0567 22.5525 24.9859C22.5109 24.9152 22.494 24.8222 22.5065 24.7321L23.4203 18.1324C23.5072 17.5048 23.4858 17.0543 23.36 16.864C23.283 16.7476 23.0517 16.5525 22.3677 16.5525H20.7122L19.5634 24.8492C19.5434 24.9935 19.4533 25.0977 19.3486 25.0977H17.0515C16.9862 25.0977 16.9243 25.0567 16.8827 24.9859C16.8412 24.9152 16.8243 24.8221 16.8368 24.7321L18.9025 9.81627C18.9225 9.67208 19.0126 9.5679 19.1173 9.5679H21.4143C21.4797 9.5679 21.5416 9.60884 21.5832 9.67955C21.6247 9.75037 21.6416 9.84339 21.6291 9.93345L21.1306 13.5335H22.9115C24.2682 13.5335 25.1882 13.8692 25.7241 14.5597C26.2703 15.2642 26.4407 16.3907 26.2307 17.9081L25.2695 24.8492C25.2496 24.9935 25.1596 25.0977 25.0548 25.0977H22.7213Z" fill="white"/>
<path d="M21.4144 9.26051H19.1173C18.9078 9.26051 18.7278 9.46887 18.6878 9.75736L16.6221 24.6732C16.5971 24.8532 16.6308 25.0394 16.7139 25.1809C16.7971 25.3224 16.9209 25.4043 17.0516 25.4043H19.3486C19.5581 25.4043 19.7382 25.1959 19.7781 24.9074L20.8926 16.8591H22.3678C23.0505 16.8591 23.1938 17.0638 23.1996 17.0726C23.241 17.1351 23.2955 17.4247 23.2056 18.0735L22.2918 24.6732C22.2668 24.8532 22.3005 25.0394 22.3837 25.1809C22.4668 25.3224 22.5906 25.4043 22.7213 25.4043H25.0548C25.2642 25.4043 25.4444 25.1959 25.4843 24.9074L26.4454 17.9664C26.6709 16.3371 26.478 15.1148 25.8721 14.3334C25.294 13.5883 24.3256 13.2261 22.9115 13.2261H21.3959L21.8439 9.99171C21.8688 9.8117 21.8351 9.62545 21.752 9.48402C21.6689 9.34248 21.545 9.26051 21.4144 9.26051ZM21.4144 9.87454L20.8652 13.8401H22.9115C24.1991 13.8401 25.0873 14.1555 25.5761 14.7855C26.0649 15.4159 26.2113 16.4374 26.0159 17.8493L25.0548 24.7903H22.7213L23.6351 18.1907C23.7391 17.44 23.7009 16.9279 23.5203 16.6548C23.3397 16.3818 22.9554 16.2451 22.3678 16.2451H20.5319L19.3486 24.7903H17.0516L19.1173 9.87454H21.4144Z" fill="black"/>
<path d="M29.8653 22.1296C30.7451 22.1296 31.4019 21.9019 31.8175 21.4531C32.2286 21.0089 32.5126 20.2392 32.6615 19.1655C32.8002 18.162 32.7474 17.4613 32.5043 17.0831C32.2559 16.6969 31.7187 16.501 30.9078 16.501H29.5018L28.7223 22.1296H29.8653ZM25.2666 29.063C25.2014 29.063 25.1394 29.0221 25.0979 28.9512C25.0563 28.8805 25.0394 28.7874 25.0519 28.6974L27.1176 13.7816C27.1377 13.6374 27.2277 13.5332 27.3324 13.5332H31.7846C33.1839 13.5332 34.2253 14.0664 34.88 15.1181C35.5381 16.1753 35.7413 17.6531 35.484 19.5106C35.3791 20.2673 35.1991 20.97 34.9486 21.5992C34.6978 22.2291 34.3664 22.8119 33.9633 23.3318C33.4809 23.9654 32.9348 24.4249 32.3418 24.6953C31.7582 24.9621 31.0087 25.0974 30.1142 25.0974H28.3114L27.7967 28.8145C27.7767 28.9588 27.6867 29.063 27.5819 29.063H25.2666Z" fill="white"/>
<path d="M29.6821 16.8082H30.9078C31.8865 16.8082 32.2264 17.1095 32.342 17.2891C32.5337 17.5874 32.5698 18.2161 32.4466 19.1073C32.3082 20.1052 32.0516 20.8126 31.684 21.2099C31.3076 21.6166 30.6956 21.8227 29.8652 21.8227H28.9877L29.6821 16.8082ZM31.7845 13.2263H27.3323C27.1229 13.2263 26.9429 13.4347 26.9029 13.7232L24.8371 28.639C24.8122 28.819 24.8459 29.0052 24.929 29.1467C25.0121 29.2882 25.1359 29.3701 25.2666 29.3701H27.5819C27.7913 29.3701 27.9714 29.1618 28.0114 28.8733L28.4917 25.4045H30.1142C31.0317 25.4045 31.8041 25.2641 32.4097 24.9873C33.0325 24.7033 33.6057 24.2217 34.1129 23.556C34.5323 23.0145 34.8777 22.4067 35.1395 21.7492C35.4013 21.0915 35.5895 20.358 35.6986 19.5692C35.9696 17.6141 35.7495 16.0485 35.0446 14.9162C34.3466 13.7949 33.2498 13.2263 31.7845 13.2263ZM28.4569 22.4367H29.8652C30.7987 22.4367 31.494 22.19 31.9509 21.6964C32.4079 21.2027 32.716 20.3788 32.8761 19.2242C33.0294 18.1157 32.9596 17.3335 32.6668 16.8777C32.3736 16.422 31.7874 16.1941 30.9078 16.1941H29.3214L28.4569 22.4367ZM31.7845 13.8404C33.1239 13.8404 34.101 14.3336 34.7151 15.3203C35.3293 16.3069 35.5142 17.6841 35.2691 19.4522C35.1683 20.1805 34.9977 20.8464 34.7576 21.4497C34.5172 22.0534 34.2032 22.6054 33.8153 23.1059C33.353 23.7131 32.8394 24.1458 32.2742 24.4035C31.7091 24.6619 30.9892 24.7905 30.1142 24.7905H28.131L27.5819 28.7561H25.2666L27.3323 13.8404H31.7845Z" fill="black"/>
</g>
</g>
<defs>
<radialGradient id="paint0_radial_429_1027" cx="0" cy="0" r="1" gradientUnits="userSpaceOnUse" gradientTransform="translate(12.9452 10.7701) scale(26.475 37.1545)">
<stop stop-color="#AEB2D5"/>
<stop offset="0.3" stop-color="#AEB2D5"/>
<stop offset="0.75" stop-color="#484C89"/>
<stop offset="1" stop-color="#484C89"/>
</radialGradient>
<clipPath id="clip0_429_1027">
<rect width="41.49" height="41.49" fill="white"/>
</clipPath>
</defs>
</svg>
