<svg width="32" height="32" viewBox="0 0 32 32" fill="none" xmlns="http://www.w3.org/2000/svg">
<g clip-path="url(#clip0_15896_1747)">
<path d="M14.4159 2H18.7863V22.9714C16.5477 23.4147 14.8997 23.5892 13.1166 23.5892C7.77864 23.5833 5 21.0867 5 16.2917C5 11.6717 7.94738 8.67332 12.5147 8.67332C13.2235 8.67332 13.7634 8.73172 14.4159 8.90666V2ZM14.569 12.6859C14.0572 12.5109 13.6353 12.4526 13.0953 12.4526C10.8848 12.4526 9.60802 13.8642 9.60802 16.3381C9.60802 18.7468 10.8286 20.0767 13.0673 20.0767C13.5509 20.0767 13.9447 20.0482 14.569 19.9607V12.6859Z" fill="#2BA977"/>
<path d="M25.9334 9.23635V19.7365C25.9334 23.3525 25.6746 25.0914 24.9153 26.5906C24.2065 28.032 23.2728 28.9409 21.3435 29.9447L17.2881 27.944C19.2174 27.0053 20.1511 26.1758 20.7473 24.91C21.3716 23.6156 21.5685 22.1164 21.5685 18.1731V9.23644L25.9334 9.23635ZM21.1281 2H25.4985V6.64918H21.1281V2Z" fill="#2BA977"/>
</g>
<defs>
<clipPath id="clip0_15896_1747">
<rect width="21" height="28" fill="white" transform="translate(5 2)"/>
</clipPath>
</defs>
</svg>
